<svg width="240" height="48" viewBox="0 0 240 48" fill="none" xmlns="http://www.w3.org/2000/svg">
<g id="socials">
<g id="Pinterest">
<circle id="Ellipse 6" cx="216" cy="24" r="23.5" stroke="black"/>
<path id="pinterest" d="M224.736 18.4777C224.407 17.3515 223.878 16.4033 223.12 15.5793C222.378 14.7733 221.525 14.1621 220.51 13.7107C219.355 13.1978 218.016 12.9486 216.737 13.0088C216.27 13.0305 215.814 13.0553 215.367 13.1209C214.108 13.3034 213 13.6837 211.978 14.2838C210.674 15.0501 209.657 16.0928 208.953 17.383C208.588 18.0544 208.228 19.2383 208.075 20.0112C207.894 20.9228 208.053 22.5039 208.417 23.3956C208.87 24.507 209.244 24.9995 210.154 25.687C210.159 25.6911 210.722 26.1018 211.097 26.0956C211.78 26.0823 211.916 25.4205 211.981 25.1024C211.993 25.0424 212.005 24.9829 212.019 24.9271C212.032 24.8779 212.049 24.8252 212.065 24.7703C212.161 24.4543 212.293 24.0218 212.075 23.6383C211.993 23.4946 211.896 23.3827 211.811 23.2844C211.764 23.2308 211.718 23.1792 211.68 23.1222C211.356 22.6348 211.192 22.0249 211.192 21.3095C211.192 20.3709 211.402 19.5208 211.833 18.7108C212.616 17.2416 213.915 16.3141 215.59 16.0283C216.543 15.8666 217.654 15.9343 218.488 16.2048C219.249 16.4523 219.897 16.89 220.362 17.4712C220.855 18.0863 221.136 18.8665 221.198 19.7906C221.239 20.3804 221.186 20.9742 221.143 21.3688C220.974 22.8874 220.538 24.1098 219.846 25.0028C219.28 25.7355 218.669 26.1029 217.978 26.1265C217.533 26.144 217.201 26.0519 216.9 25.8338C216.616 25.6288 216.448 25.3762 216.368 25.0396C216.278 24.6553 216.387 24.2568 216.502 23.8349L216.521 23.7675C216.622 23.3962 216.727 23.0571 216.831 22.7233C216.993 22.1973 217.162 21.6534 217.301 21.0227C217.459 20.3105 217.479 19.7355 217.366 19.2652C217.225 18.6817 216.916 18.2446 216.446 17.9657C215.948 17.6715 215.243 17.615 214.651 17.8215C213.769 18.1266 213.097 18.9381 212.805 20.0481C212.658 20.6119 212.615 21.2037 212.679 21.8059C212.728 22.2781 212.832 22.707 213.024 23.2252C213.018 23.2477 213.011 23.2713 213.004 23.2942C212.99 23.3405 212.978 23.385 212.968 23.4234C212.761 24.3007 212.559 25.166 212.358 26.0298C212.167 26.8499 211.975 27.6687 211.78 28.4957L211.736 28.6811C211.536 29.5237 211.33 30.3949 211.282 31.4351L211.26 31.8696C211.218 32.6776 211.175 33.5134 211.282 34.2866C211.303 34.4374 211.35 34.7757 211.679 34.8939C211.777 34.9687 211.871 35 211.963 35C212.238 35 212.483 34.717 212.691 34.477C213.37 33.6942 213.948 32.7059 214.457 31.4561C214.685 30.8971 214.836 30.2957 214.982 29.7139L215.07 29.3672C215.176 28.9529 215.281 28.533 215.384 28.1176L215.391 28.09C215.583 28.2601 215.804 28.4137 216.061 28.5561C216.604 28.861 217.217 29.0386 217.882 29.0838C218.506 29.1267 219.162 29.0457 219.886 28.8351C220.436 28.6761 220.963 28.4346 221.453 28.1172C223.208 26.9783 224.404 24.9859 224.822 22.5073C224.947 21.7667 225 21.1713 225 20.5166C225 19.7612 224.911 19.075 224.736 18.4777ZM223.968 22.3595C223.592 24.5918 222.533 26.3741 220.986 27.378C220.568 27.6495 220.118 27.8556 219.648 27.9914C219.022 28.1737 218.462 28.2446 217.941 28.2084C217.395 28.1712 216.917 28.0338 216.478 27.7873C216.039 27.5437 215.754 27.279 215.554 26.9297L215.023 26.0005L214.544 27.9034C214.441 28.3164 214.338 28.7337 214.232 29.1459L214.143 29.4977C213.998 30.0749 213.861 30.6201 213.657 31.121C213.201 32.2408 212.692 33.1265 212.103 33.8249C212.057 33.2304 212.091 32.5637 212.125 31.9156L212.147 31.476C212.191 30.5188 212.388 29.6888 212.578 28.8863L212.622 28.6999C212.818 27.8723 213.009 27.0524 213.2 26.2316C213.402 25.3687 213.603 24.5044 213.81 23.6291C213.816 23.6044 213.825 23.5755 213.834 23.5453C213.886 23.3684 213.94 23.1856 213.867 22.9998C213.681 22.5176 213.583 22.133 213.539 21.7134C213.487 21.2176 213.522 20.7332 213.643 20.2735C213.858 19.4519 214.328 18.8608 214.932 18.6517C215.082 18.5996 215.239 18.5773 215.389 18.5773C215.635 18.5773 215.862 18.6369 216.009 18.7234C216.272 18.8794 216.44 19.1245 216.524 19.4737C216.605 19.8055 216.582 20.2623 216.457 20.8311C216.325 21.4256 216.169 21.9282 216.005 22.4604C215.898 22.8034 215.79 23.152 215.686 23.5337L215.668 23.6004C215.535 24.0871 215.384 24.6386 215.526 25.2431C215.655 25.7905 215.94 26.2173 216.396 26.5478C216.85 26.8765 217.383 27.0235 218.007 27.0035C218.956 26.9712 219.804 26.4801 220.527 25.5446C221.32 24.5216 221.817 23.1498 222.003 21.4663C222.05 21.0372 222.108 20.3905 222.063 19.7302C221.987 18.6226 221.642 17.6767 221.035 16.9185C220.464 16.2046 219.675 15.6688 218.752 15.3693C217.795 15.058 216.528 14.9786 215.446 15.1628C213.498 15.4953 211.985 16.5778 211.071 18.2939C210.57 19.2352 210.326 20.2216 210.326 21.3095C210.326 22.2027 210.54 22.9772 210.961 23.6117C211.019 23.6994 211.088 23.7812 211.16 23.8637C211.225 23.9382 211.286 24.0085 211.323 24.0738C211.349 24.1454 211.274 24.3928 211.238 24.5117C211.217 24.5788 211.198 24.6433 211.182 24.7035C211.164 24.7735 211.148 24.8485 211.133 24.9242C211.116 25.0068 211.09 25.1343 211.063 25.2044C210.96 25.1637 210.773 25.0593 210.671 24.983C209.893 24.3959 209.608 24.0183 209.217 23.0605C208.924 22.3407 208.779 20.916 208.924 20.1841C209.086 19.364 209.432 18.32 209.711 17.8073C210.338 16.6584 211.247 15.7282 212.413 15.0428C213.336 14.5004 214.342 14.1559 215.491 13.9894C215.899 13.9294 216.332 13.906 216.777 13.8855C217.925 13.8309 219.127 14.0543 220.163 14.5143C221.066 14.9166 221.827 15.4606 222.486 16.1779C223.151 16.9001 223.615 17.7339 223.905 18.7273C224.057 19.2438 224.134 19.846 224.134 20.5166C224.134 21.1191 224.085 21.6703 223.968 22.3595Z" fill="black"/>
</g>
<g id="VK">
<circle id="Ellipse 7" cx="120" cy="24" r="23.5" stroke="black"/>
<path id="vk" d="M133.125 32.9531H129.187C128.719 32.9531 128.25 32.6719 127.969 32.2969L127.594 31.6875C127.359 31.4063 125.203 28.9219 123.891 28.125C123.375 27.8438 123.187 27.8906 123.187 27.8906C123.187 27.8906 123.141 28.0313 123.141 28.0781V30.5625C123.141 31.875 122.062 32.9062 120.797 32.9062H119.859C119.625 32.9062 114.375 32.8125 110.203 26.5781C106.922 21.7031 105.844 18.5156 105.469 16.6875C105.375 16.2656 105.516 15.8437 105.75 15.5156C106.031 15.1875 106.406 15 106.828 15H110.156C110.766 15 111.281 15.375 111.469 15.9844C111.844 17.0625 112.781 19.8281 113.906 21.6094C115.547 24.3281 116.203 24.5625 116.391 24.5625C116.531 24.3281 116.484 23.3906 116.484 22.7813C116.484 22.5 116.484 22.2656 116.484 21.9844C116.484 21.7969 116.484 21.5625 116.484 21.3281C116.484 20.1562 116.531 18.5625 116.062 17.8125L115.125 16.4531C114.937 16.1719 114.891 15.7969 115.078 15.4688C115.219 15.1406 115.547 14.9531 115.922 14.9531H121.266C122.062 14.9531 122.672 15.6094 122.672 16.3594V23.1094C122.672 23.1563 122.719 23.2031 122.719 23.2031C122.719 23.2031 122.906 23.2031 123.422 22.7344C124.5 21.6562 125.859 19.6406 127.219 16.875L127.687 15.7969C127.922 15.2813 128.437 14.9531 129 14.9531H132.469C132.937 14.9531 133.359 15.1875 133.641 15.5625C133.922 15.9375 133.969 16.4531 133.781 16.875L133.406 17.8594V17.9063C133.359 18 132.094 20.4844 130.781 22.3125C129.75 23.7188 129.328 24.375 129.422 24.6094C129.516 24.75 130.125 25.4531 130.734 26.0156C131.859 27.1875 133.266 28.6875 133.781 29.6719C134.016 30.0938 134.25 30.4688 134.391 30.7969C134.625 31.2188 134.625 31.7344 134.344 32.2031C134.062 32.7188 133.641 32.9531 133.125 32.9531ZM123.281 26.9531C123.609 26.9531 123.984 27.0938 124.406 27.3281C125.953 28.2188 128.297 30.9844 128.391 31.125L128.437 31.1719L128.812 31.7812C128.906 31.9219 129.047 32.0156 129.234 32.0156H133.125C133.359 32.0156 133.5 31.875 133.547 31.7812C133.594 31.7344 133.687 31.5469 133.547 31.3125C133.359 30.9844 133.172 30.6094 132.937 30.1875C132.469 29.3438 131.062 27.8438 130.031 26.7188C129 25.5938 128.625 25.2188 128.531 24.9844C128.25 24.2812 128.672 23.7188 130.031 21.8438C131.25 20.1563 132.422 17.8594 132.562 17.5781L132.937 16.5938C132.984 16.4531 132.984 16.2656 132.891 16.1719C132.797 16.0313 132.656 15.9844 132.516 15.9844H129.047C128.859 15.9844 128.672 16.0781 128.625 16.2656L128.156 17.3906C127.125 19.4063 125.625 22.0781 124.172 23.5312C123.562 24.1406 123 24.3281 122.531 24.1875C121.969 24 121.828 23.3906 121.828 23.3438C121.828 23.2969 121.828 23.2969 121.828 23.25V16.4531C121.828 16.1719 121.594 15.9844 121.359 15.9844H115.922L116.859 17.3438C117.469 18.3281 117.469 20.0625 117.422 21.4219C117.422 21.6563 117.422 21.8438 117.422 22.0312C117.422 22.2656 117.422 22.5469 117.422 22.7813C117.469 24.0938 117.469 25.3125 116.625 25.5C115.687 25.6875 114.703 24.7031 113.109 22.125C112.031 20.2969 111.094 17.7188 110.625 16.3125C110.578 16.125 110.391 15.9844 110.156 15.9844H106.875C106.734 15.9844 106.594 16.0313 106.5 16.1719C106.406 16.2656 106.406 16.4063 106.406 16.5469C106.734 18.2813 107.812 21.3281 111 26.1094C114.891 31.9219 119.812 32.0156 119.859 32.0156H120.797C121.594 32.0156 122.203 31.3594 122.203 30.6094V28.125C122.203 28.0781 122.203 27.4219 122.719 27.0938C122.906 27 123.094 26.9531 123.281 26.9531Z" fill="black"/>
</g>
<g id="YouTube">
<circle id="Ellipse 4" cx="24" cy="24" r="23.5" stroke="black"/>
<g id="youtube">
<path id="Vector" d="M31.8296 14H16.1703C13.3193 14 11 16.436 11 19.4302V28.5698C11 31.564 13.3193 34 16.1703 34H31.8296C34.6806 34 37 31.564 37 28.5698V19.4302C37 16.436 34.6806 14 31.8296 14ZM35.9388 28.5698C35.9388 30.9512 34.0954 32.8889 31.8296 32.8889H16.1703C13.9046 32.8889 12.0612 30.9512 12.0612 28.5698V19.4302C12.0612 17.0488 13.9046 15.1111 16.1703 15.1111H31.8296C34.0954 15.1111 35.9388 17.0488 35.9388 19.4302V28.5698Z" fill="black"/>
<path id="Vector_2" d="M28.7014 23.799L21.3498 19.2905C21.1866 19.1904 20.9829 19.1888 20.8179 19.2878C20.6528 19.3868 20.551 19.5707 20.551 19.7698V28.7857C20.551 28.9848 20.6528 29.1687 20.8176 29.2677C20.8995 29.3168 20.9907 29.3413 21.0816 29.3413C21.1744 29.3413 21.2669 29.3158 21.3498 29.265L28.7014 24.7577C28.8638 24.6581 28.9639 24.4755 28.9639 24.2783C28.9639 24.0811 28.8641 23.8985 28.7014 23.799ZM21.6122 27.8164V20.7391L27.3832 24.2783L21.6122 27.8164Z" fill="black"/>
</g>
</g>
</g>
</svg>
